<svg width="42" height="42" viewBox="0 0 42 42" fill="none" xmlns="http://www.w3.org/2000/svg">
<path d="M13.2857 19.2858H8.31432C7.35423 19.2858 6.87419 19.2858 6.50748 19.4727C6.18492 19.637 5.92266 19.8993 5.75831 20.2218C5.57146 20.5885 5.57146 21.0686 5.57146 22.0287V36.4287M28.7143 19.2858H33.6858C34.6458 19.2858 35.1259 19.2858 35.4926 19.4727C35.8152 19.637 36.0774 19.8993 36.2418 20.2218C36.4286 20.5885 36.4286 21.0686 36.4286 22.0287V36.4287M28.7143 36.4287V11.0572C28.7143 9.13707 28.7143 8.17698 28.3406 7.44357C28.0119 6.79844 27.4874 6.27393 26.8423 5.94523C26.1089 5.57153 25.1488 5.57153 23.2286 5.57153H18.7715C16.8513 5.57153 15.8912 5.57153 15.1578 5.94523C14.5127 6.27393 13.9882 6.79844 13.6594 7.44357C13.2858 8.17698 13.2857 9.13707 13.2857 11.0572V36.4287M38.1429 36.4287H3.85718M19.2858 12.4287H22.7143M19.2858 19.2858H22.7143M19.2858 26.143H22.7143" stroke="#F09005" stroke-width="2" stroke-linecap="round" stroke-linejoin="round"/>
</svg>
