<svg width="72" height="47" viewBox="0 0 72 47" fill="none" xmlns="http://www.w3.org/2000/svg">
<g clip-path="url(#clip0_398_2262)">
<path d="M59.4463 30.7775L47.1765 3.06991C46.3232 1.15735 44.8128 0 42.704 0H42.2529C40.1441 0 38.5847 1.15735 37.7314 3.06991L25.4615 30.7775C25.2065 31.3268 25.0104 31.8859 25.0104 32.4351C25.0104 34.4457 26.5698 36.0543 28.5805 36.0543C30.189 36.0543 31.4935 35.1519 32.1506 33.6415L42.3608 9.39608L52.4728 33.3865C53.179 34.995 54.3854 36.0543 56.1999 36.0543C58.2595 36.0543 59.8681 34.3967 59.8681 32.337C59.8681 31.8368 59.7209 31.3268 59.4659 30.7775" fill="#2D2C68"/>
<path d="M0 40.1344L4.80593 35.662C7.60121 38.9575 10.73 40.8014 15.0847 40.8014C18.9393 40.8014 21.8424 38.4573 21.8424 34.8773V34.7695C21.8424 30.9149 18.3214 28.7375 12.8485 28.7375H9.66089L8.54278 24.4318L19.106 13.2016H2.17738V7.21875H28.0509V12.3581L17.1542 23.5295C23.0783 24.2553 28.6688 27.2761 28.6688 34.485V34.5929C28.6688 41.8018 23.1371 47.0001 14.9768 47.0001C8.16027 47.0001 3.29549 44.1557 0 40.1246" fill="#2F4A97"/>
<path d="M70.8139 8.6311C70.3333 7.78761 69.4211 7.21875 68.3815 7.21875H57.6515C56.1019 7.21875 54.8464 8.47418 54.8464 10.0238C54.8464 11.5735 56.1019 12.8289 57.6515 12.8289H63.5363C63.9188 12.8584 65.6058 13.0938 66.5866 14.8003C67.6165 16.5756 66.8907 18.2135 66.6455 18.6843L70.8237 11.446C71.3435 10.5437 71.3043 9.47459 70.8237 8.6311H70.8139Z" fill="#F09005"/>
<path d="M66.5866 14.81C65.596 13.1034 63.9189 12.868 63.5363 12.8386L60.5939 17.929C59.8191 19.2727 60.2801 20.9891 61.6238 21.7639C62.9675 22.5387 64.6839 22.0778 65.4587 20.7341L66.6455 18.6842C66.9005 18.2134 67.6165 16.5755 66.5964 14.8002L66.5866 14.81Z" fill="#E7501D"/>
<path d="M57.1611 17.3112C56.4942 16.1441 55.229 15.3496 53.7872 15.3496H38.9084C36.7605 15.3496 35.0146 17.0954 35.0146 19.2434C35.0146 21.4012 36.7605 23.1372 38.9084 23.1372H47.0687C47.5983 23.1764 49.9326 23.5099 51.3058 25.8736C52.7279 28.3354 51.7373 30.6011 51.3842 31.2582L57.1808 21.2148C57.9065 19.9594 57.8477 18.4784 57.1808 17.3112H57.1611Z" fill="#F09005"/>
<path d="M51.2959 25.8834C49.9326 23.5197 47.5983 23.196 47.0588 23.147L42.9787 30.2087C41.8998 32.0723 42.5373 34.4556 44.4009 35.5345C46.2644 36.6134 48.6477 35.9759 49.7266 34.1123L51.3646 31.268C51.7176 30.6109 52.7083 28.3452 51.2861 25.8834H51.2959Z" fill="#E7501D"/>
<path d="M29.1003 39.2224H29.6104V42.5375H31.3562V43.0181H29.1003V39.2224Z" fill="#2D2C68"/>
<path d="M33.8082 43.1161C33.5139 43.1161 33.2491 43.0671 33.0039 42.969C32.7587 42.8709 32.5527 42.7238 32.3762 42.5473C32.1997 42.3707 32.0721 42.1549 31.9643 41.9097C31.8662 41.6645 31.8171 41.3997 31.8171 41.1251C31.8171 40.8505 31.8662 40.5759 31.9643 40.3405C32.0623 40.0953 32.1997 39.8893 32.3762 39.7029C32.5527 39.5264 32.7587 39.3891 33.0039 39.2812C33.2491 39.1831 33.5139 39.1243 33.8082 39.1243C34.1024 39.1243 34.3672 39.1733 34.6026 39.2812C34.8478 39.3793 35.0538 39.5264 35.2303 39.7029C35.4069 39.8795 35.5344 40.0953 35.6423 40.3405C35.7403 40.5857 35.7894 40.8505 35.7894 41.1251C35.7894 41.3997 35.7403 41.6744 35.6423 41.9097C35.5442 42.1549 35.4069 42.3609 35.2303 42.5473C35.0538 42.7238 34.8478 42.8709 34.6026 42.969C34.3574 43.0671 34.0926 43.1161 33.8082 43.1161ZM33.8082 42.6355C34.0239 42.6355 34.2201 42.5963 34.3966 42.5178C34.5732 42.4394 34.7203 42.3315 34.8478 42.1942C34.9753 42.0569 35.0734 41.8999 35.1421 41.7136C35.2107 41.5272 35.2401 41.3311 35.2401 41.1251C35.2401 40.9191 35.2009 40.723 35.1421 40.5366C35.0734 40.3503 34.9753 40.1933 34.8478 40.056C34.7203 39.9187 34.5732 39.8108 34.3966 39.7324C34.2201 39.6539 34.0239 39.6147 33.8082 39.6147C33.5924 39.6147 33.3962 39.6539 33.2197 39.7324C33.0431 39.8108 32.896 39.9187 32.7685 40.056C32.641 40.1933 32.5429 40.3503 32.4743 40.5366C32.4056 40.723 32.3762 40.9191 32.3762 41.1251C32.3762 41.3311 32.4154 41.5272 32.4743 41.7136C32.5429 41.8999 32.641 42.0569 32.7685 42.1942C32.896 42.3315 33.0431 42.4394 33.2197 42.5178C33.3962 42.5963 33.5924 42.6355 33.8082 42.6355Z" fill="#2D2C68"/>
<path d="M39.3596 40.0462C39.2517 39.9089 39.1143 39.801 38.9476 39.7225C38.7809 39.644 38.6141 39.6146 38.4376 39.6146C38.2218 39.6146 38.0257 39.6539 37.8589 39.7323C37.6824 39.8108 37.5353 39.9187 37.4176 40.0658C37.2901 40.2031 37.2018 40.3698 37.1331 40.5562C37.0645 40.7425 37.035 40.9485 37.035 41.1643C37.035 41.3605 37.0645 41.5566 37.1331 41.7332C37.2018 41.9097 37.2901 42.0666 37.4078 42.2039C37.5255 42.3413 37.6726 42.4491 37.8491 42.5276C38.0257 42.6061 38.2218 42.6453 38.4474 42.6453C38.673 42.6453 38.8593 42.6061 39.0163 42.508C39.183 42.4197 39.3203 42.2922 39.438 42.1353L39.8696 42.459C39.8696 42.459 39.7911 42.557 39.7224 42.6257C39.6538 42.6943 39.5557 42.7728 39.438 42.8513C39.3203 42.9199 39.1732 42.9886 39.0065 43.0474C38.8397 43.1063 38.6436 43.1259 38.4278 43.1259C38.1237 43.1259 37.8589 43.067 37.6137 42.9494C37.3685 42.8317 37.1626 42.6845 36.9958 42.4982C36.8291 42.3118 36.7016 42.1059 36.6035 41.8705C36.5152 41.6351 36.4662 41.3997 36.4662 41.1643C36.4662 40.8701 36.5152 40.6052 36.6133 40.3502C36.7114 40.105 36.8487 39.8892 37.0154 39.7029C37.192 39.5264 37.3979 39.3792 37.6431 39.2812C37.8883 39.1831 38.1532 39.134 38.4474 39.134C38.6926 39.134 38.9476 39.1831 39.183 39.2812C39.4282 39.3792 39.6244 39.5264 39.7813 39.7225L39.3497 40.0462H39.3596Z" fill="#2D2C68"/>
<path d="M41.8704 39.2224H42.3313L43.9595 43.0181H43.3612L42.9787 42.0765H41.174L40.8013 43.0181H40.203L41.8802 39.2224H41.8704ZM42.7923 41.6352L42.0861 39.8894H42.0763L41.3603 41.6352H42.8021H42.7923Z" fill="#2D2C68"/>
<path d="M44.5577 39.2224H45.8818C46.1466 39.2224 46.382 39.2518 46.588 39.3107C46.794 39.3695 46.9607 39.4578 47.1176 39.5559C47.2648 39.654 47.3923 39.7717 47.4903 39.909C47.5884 40.0365 47.6669 40.1738 47.7257 40.3209C47.7846 40.4582 47.8238 40.5955 47.8532 40.7427C47.8827 40.88 47.8925 41.0075 47.8925 41.1252C47.8925 41.3704 47.8434 41.6058 47.7552 41.8313C47.6669 42.0569 47.5296 42.2629 47.3628 42.4394C47.1863 42.616 46.9705 42.7631 46.7155 42.8612C46.4605 42.9691 46.1564 43.0181 45.823 43.0181H44.5872V39.2224H44.5577ZM45.0776 42.5375H45.7249C45.9407 42.5375 46.1466 42.5081 46.3428 42.4492C46.539 42.3904 46.7057 42.3021 46.8528 42.1844C46.9999 42.0667 47.1176 41.9196 47.2059 41.7431C47.2942 41.5665 47.3334 41.3606 47.3334 41.1252C47.3334 41.0075 47.3138 40.8604 47.2746 40.6936C47.2353 40.5269 47.1569 40.3798 47.049 40.2326C46.9411 40.0855 46.7842 39.958 46.5978 39.8599C46.4115 39.7619 46.1564 39.703 45.8426 39.703H45.0678V42.5375H45.0776Z" fill="#2D2C68"/>
<path d="M50.5505 43.1161C50.2562 43.1161 49.9914 43.0671 49.7462 42.969C49.501 42.8709 49.2951 42.7238 49.1185 42.5473C48.942 42.3707 48.8145 42.1549 48.7066 41.9097C48.6085 41.6645 48.5594 41.3997 48.5594 41.1251C48.5594 40.8505 48.6085 40.5759 48.7066 40.3405C48.8047 40.0953 48.942 39.8893 49.1185 39.7029C49.2951 39.5264 49.501 39.3891 49.7462 39.2812C49.9914 39.1831 50.2562 39.1243 50.5505 39.1243C50.8447 39.1243 51.1095 39.1733 51.3449 39.2812C51.5901 39.3793 51.7961 39.5264 51.9726 39.7029C52.1492 39.8795 52.2865 40.0953 52.3846 40.3405C52.4827 40.5857 52.5317 40.8505 52.5317 41.1251C52.5317 41.3997 52.4827 41.6744 52.3846 41.9097C52.2865 42.1549 52.1492 42.3609 51.9726 42.5473C51.7961 42.7238 51.5901 42.8709 51.3449 42.969C51.0997 43.0671 50.8349 43.1161 50.5505 43.1161ZM50.5505 42.6355C50.7663 42.6355 50.9624 42.5963 51.139 42.5178C51.3155 42.4394 51.4626 42.3315 51.5901 42.1942C51.7176 42.0569 51.8157 41.8999 51.8844 41.7136C51.953 41.5272 51.9824 41.3311 51.9824 41.1251C51.9824 40.9191 51.9432 40.723 51.8844 40.5366C51.8157 40.3503 51.7176 40.1933 51.5901 40.056C51.4626 39.9187 51.3155 39.8108 51.139 39.7324C50.9624 39.6539 50.7663 39.6147 50.5505 39.6147C50.3347 39.6147 50.1385 39.6539 49.962 39.7324C49.7855 39.8108 49.6383 39.9187 49.5108 40.056C49.3833 40.1933 49.2852 40.3503 49.2166 40.5366C49.1479 40.723 49.1185 40.9191 49.1185 41.1251C49.1185 41.3311 49.1577 41.5272 49.2166 41.7136C49.2852 41.8999 49.3833 42.0569 49.5108 42.1942C49.6383 42.3315 49.7855 42.4394 49.962 42.5178C50.1385 42.5963 50.3347 42.6355 50.5505 42.6355Z" fill="#2D2C68"/>
<path d="M53.4537 39.2224H54.7875C55.0327 39.2224 55.2289 39.2518 55.3858 39.3205C55.5428 39.3891 55.6703 39.4676 55.7585 39.5755C55.8468 39.6736 55.9155 39.7913 55.9449 39.9188C55.9841 40.0463 56.0037 40.164 56.0037 40.2817C56.0037 40.4092 55.9841 40.5171 55.9351 40.6348C55.8958 40.7525 55.8272 40.8505 55.7487 40.9388C55.6703 41.0271 55.5722 41.1055 55.4545 41.1742C55.3368 41.2331 55.2093 41.2723 55.0622 41.2919L56.1411 43.0279H55.4937L54.5325 41.3507H53.9637V43.0279H53.4438V39.2322L53.4537 39.2224ZM53.9735 40.8996H54.6502C54.7483 40.8996 54.8464 40.8996 54.9445 40.88C55.0426 40.8603 55.1308 40.8309 55.2093 40.7917C55.2878 40.7525 55.3466 40.6838 55.3956 40.6053C55.4447 40.5269 55.4643 40.419 55.4643 40.2915C55.4643 40.164 55.4447 40.0561 55.3956 39.9776C55.3466 39.8992 55.2878 39.8403 55.2093 39.7913C55.1308 39.7422 55.0426 39.7226 54.9445 39.703C54.8464 39.6834 54.7483 39.6834 54.6502 39.6834H53.9735V40.9094V40.8996Z" fill="#2D2C68"/>
<path d="M58.1124 39.2224H58.5832L60.2113 43.0181H59.613L59.2305 42.0765H57.4258L57.0531 43.0181H56.4548L58.132 39.2224H58.1124ZM59.0343 41.6352L58.3282 39.8894H58.3184L57.6024 41.6352H59.0442H59.0343Z" fill="#2D2C68"/>
</g>
<defs>
<clipPath id="clip0_398_2262">
<rect width="71.1964" height="47" fill="white"/>
</clipPath>
</defs>
</svg>
