<svg width="22" height="23" viewBox="0 0 22 23" fill="none" xmlns="http://www.w3.org/2000/svg">
<path d="M10.0833 4.16667H7.15C5.60986 4.16667 4.83978 4.16667 4.25153 4.4664C3.73408 4.73005 3.31338 5.15075 3.04973 5.66819C2.75 6.25645 2.75 7.02652 2.75 8.56667V13.3333C2.75 14.1858 2.75 14.612 2.8437 14.9618C3.09799 15.9108 3.83924 16.652 4.78825 16.9063C5.13796 17 5.56419 17 6.41667 17V19.1409C6.41667 19.6293 6.41667 19.8735 6.51679 19.999C6.60387 20.1081 6.73591 20.1715 6.87549 20.1714C7.03599 20.1712 7.2267 20.0186 7.60811 19.7135L9.79478 17.9642C10.2415 17.6068 10.4648 17.4281 10.7135 17.3011C10.9342 17.1884 11.1691 17.106 11.4118 17.0561C11.6854 17 11.9714 17 12.5434 17H13.9333C15.4735 17 16.2436 17 16.8318 16.7003C17.3493 16.4366 17.7699 16.0159 18.0336 15.4985C18.3333 14.9102 18.3333 14.1401 18.3333 12.6V12.4167M18.4445 4.05546C19.5185 5.1294 19.5185 6.8706 18.4445 7.94454C17.3706 9.01849 15.6294 9.01849 14.5555 7.94454C13.4815 6.8706 13.4815 5.1294 14.5555 4.05546C15.6294 2.98151 17.3706 2.98151 18.4445 4.05546Z" stroke="white" stroke-width="1.5" stroke-linecap="round" stroke-linejoin="round"/>
</svg>
