<svg width="42" height="42" viewBox="0 0 42 42" fill="none" xmlns="http://www.w3.org/2000/svg">
<g id="users-01">
<path id="Icon" d="M37.7117 35.9975V32.5692C37.7117 29.3743 35.5265 26.6897 32.5692 25.9285M26.5696 5.64093C29.0824 6.65809 30.855 9.12163 30.855 11.9992C30.855 14.8767 29.0824 17.3403 26.5696 18.3574M29.1408 35.9975C29.1408 32.8027 29.1408 31.2053 28.6189 29.9452C27.923 28.2652 26.5882 26.9304 24.9081 26.2344C23.6481 25.7125 22.0507 25.7125 18.8558 25.7125H13.7133C10.5185 25.7125 8.92114 25.7125 7.66108 26.2344C5.981 26.9304 4.64619 28.2652 3.95028 29.9452C3.42834 31.2053 3.42834 32.8027 3.42834 35.9975M23.1413 11.9992C23.1413 15.786 20.0714 18.8558 16.2846 18.8558C12.4978 18.8558 9.42793 15.786 9.42793 11.9992C9.42793 8.21235 12.4978 5.14252 16.2846 5.14252C20.0714 5.14252 23.1413 8.21235 23.1413 11.9992Z" stroke="#F09005" stroke-width="2" stroke-linecap="round" stroke-linejoin="round"/>
</g>
</svg>
